<?xml version="1.0" encoding="utf-8" standalone="no"?>
<!DOCTYPE svg PUBLIC "-//W3C//DTD SVG 1.1//EN"
  "http://www.w3.org/Graphics/SVG/1.1/DTD/svg11.dtd">
<svg xmlns:xlink="http://www.w3.org/1999/xlink" width="460.8pt" height="345.6pt" viewBox="0 0 460.8 345.6" xmlns="http://www.w3.org/2000/svg" version="1.1">
 <metadata>
  <rdf:RDF xmlns:dc="http://purl.org/dc/elements/1.1/" xmlns:cc="http://creativecommons.org/ns#" xmlns:rdf="http://www.w3.org/1999/02/22-rdf-syntax-ns#">
   <cc:Work>
    <dc:type rdf:resource="http://purl.org/dc/dcmitype/StillImage"/>
    <dc:date>2023-03-27T14:17:28.300401</dc:date>
    <dc:format>image/svg+xml</dc:format>
    <dc:creator>
     <cc:Agent>
      <dc:title>Matplotlib v3.6.0, https://matplotlib.org/</dc:title>
     </cc:Agent>
    </dc:creator>
   </cc:Work>
  </rdf:RDF>
 </metadata>
 <defs>
  <style type="text/css">*{stroke-linejoin: round; stroke-linecap: butt}</style>
 </defs>
 <g id="figure_1">
  <g id="patch_1">
   <path d="M 0 345.6 
L 460.8 345.6 
L 460.8 0 
L 0 0 
z
" style="fill: #ffffff"/>
  </g>
  <g id="axes_1">
   <g id="patch_2">
    <path d="M 57.6 307.584 
L 414.72 307.584 
L 414.72 41.472 
L 57.6 41.472 
z
" style="fill: #ffffff"/>
   </g>
   <g id="PolyCollection_1">
    <path d="M 73.832727 99.311525 
L 73.832727 307.584 
L 82.607174 307.584 
L 91.381622 307.584 
L 100.156069 307.584 
L 108.930516 307.584 
L 117.704963 307.584 
L 126.47941 307.584 
L 135.253857 307.584 
L 144.028305 307.584 
L 152.802752 307.584 
L 161.577199 307.584 
L 170.351646 307.584 
L 179.126093 307.584 
L 187.900541 307.584 
L 196.674988 307.584 
L 205.449435 307.584 
L 214.223882 307.584 
L 222.998329 307.584 
L 231.772776 307.584 
L 240.547224 307.584 
L 249.321671 307.584 
L 258.096118 307.584 
L 266.870565 307.584 
L 275.645012 307.584 
L 284.419459 307.584 
L 293.193907 307.584 
L 301.968354 307.584 
L 310.742801 307.584 
L 319.517248 307.584 
L 328.291695 307.584 
L 337.066143 307.584 
L 345.84059 307.584 
L 354.615037 307.584 
L 363.389484 307.584 
L 372.163931 307.584 
L 380.938378 307.584 
L 389.712826 307.584 
L 398.487273 307.584 
L 398.487273 307.584 
L 398.487273 307.584 
L 389.712826 307.584 
L 380.938378 307.584 
L 372.163931 307.584 
L 363.389484 307.584 
L 354.615037 307.584 
L 345.84059 307.584 
L 337.066143 307.584 
L 328.291695 307.584 
L 319.517248 307.584 
L 310.742801 307.584 
L 301.968354 307.584 
L 293.193907 307.584 
L 284.419459 307.584 
L 275.645012 307.584 
L 266.870565 307.584 
L 258.096118 307.584 
L 249.321671 307.584 
L 240.547224 307.584 
L 231.772776 307.584 
L 222.998329 307.584 
L 214.223882 307.584 
L 205.449435 307.584 
L 196.674988 307.584 
L 187.900541 307.584 
L 179.126093 307.584 
L 170.351646 307.584 
L 161.577199 307.584 
L 152.802752 307.584 
L 144.028305 307.584 
L 135.253857 307.584 
L 126.47941 307.584 
L 117.704963 307.584 
L 108.930516 307.584 
L 100.156069 297.546772 
L 91.381622 290.018851 
L 82.607174 219.758257 
L 73.832727 99.311525 
z
" clip-path="url(#pfe41b39ca3)" style="fill: #1f77b4"/>
   </g>
   <g id="PolyCollection_2">
    <path d="M 73.832727 56.653307 
L 73.832727 99.311525 
L 82.607174 219.758257 
L 91.381622 290.018851 
L 100.156069 297.546772 
L 108.930516 307.584 
L 117.704963 307.584 
L 126.47941 307.584 
L 135.253857 307.584 
L 144.028305 307.584 
L 152.802752 307.584 
L 161.577199 307.584 
L 170.351646 307.584 
L 179.126093 307.584 
L 187.900541 307.584 
L 196.674988 307.584 
L 205.449435 307.584 
L 214.223882 307.584 
L 222.998329 307.584 
L 231.772776 307.584 
L 240.547224 307.584 
L 249.321671 307.584 
L 258.096118 307.584 
L 266.870565 307.584 
L 275.645012 307.584 
L 284.419459 307.584 
L 293.193907 307.584 
L 301.968354 307.584 
L 310.742801 307.584 
L 319.517248 307.584 
L 328.291695 307.584 
L 337.066143 307.584 
L 345.84059 307.584 
L 354.615037 307.584 
L 363.389484 307.584 
L 372.163931 307.584 
L 380.938378 307.584 
L 389.712826 307.584 
L 398.487273 307.584 
L 398.487273 307.584 
L 398.487273 307.584 
L 389.712826 307.584 
L 380.938378 307.584 
L 372.163931 307.584 
L 363.389484 307.584 
L 354.615037 307.584 
L 345.84059 307.584 
L 337.066143 307.584 
L 328.291695 307.584 
L 319.517248 307.584 
L 310.742801 307.584 
L 301.968354 307.584 
L 293.193907 307.584 
L 284.419459 307.584 
L 275.645012 307.584 
L 266.870565 307.584 
L 258.096118 307.584 
L 249.321671 307.584 
L 240.547224 307.584 
L 231.772776 307.584 
L 222.998329 307.584 
L 214.223882 307.584 
L 205.449435 307.584 
L 196.674988 307.584 
L 187.900541 307.584 
L 179.126093 307.584 
L 170.351646 307.584 
L 161.577199 307.584 
L 152.802752 307.584 
L 144.028305 307.584 
L 135.253857 307.584 
L 126.47941 307.584 
L 117.704963 264.925782 
L 108.930516 282.490931 
L 100.156069 279.981624 
L 91.381622 242.34202 
L 82.607174 164.553505 
L 73.832727 56.653307 
z
" clip-path="url(#pfe41b39ca3)" style="fill: #ff7f0e"/>
   </g>
   <g id="PolyCollection_3">
    <path d="M 73.832727 56.653307 
L 73.832727 56.653307 
L 82.607174 164.553505 
L 91.381622 242.34202 
L 100.156069 279.981624 
L 108.930516 282.490931 
L 117.704963 264.925782 
L 126.47941 307.584 
L 135.253857 307.584 
L 144.028305 307.584 
L 152.802752 307.584 
L 161.577199 307.584 
L 170.351646 307.584 
L 179.126093 307.584 
L 187.900541 307.584 
L 196.674988 307.584 
L 205.449435 307.584 
L 214.223882 307.584 
L 222.998329 307.584 
L 231.772776 307.584 
L 240.547224 307.584 
L 249.321671 307.584 
L 258.096118 307.584 
L 266.870565 307.584 
L 275.645012 307.584 
L 284.419459 307.584 
L 293.193907 307.584 
L 301.968354 307.584 
L 310.742801 307.584 
L 319.517248 307.584 
L 328.291695 307.584 
L 337.066143 307.584 
L 345.84059 307.584 
L 354.615037 307.584 
L 363.389484 307.584 
L 372.163931 307.584 
L 380.938378 307.584 
L 389.712826 307.584 
L 398.487273 307.584 
L 398.487273 307.584 
L 398.487273 307.584 
L 389.712826 307.584 
L 380.938378 307.584 
L 372.163931 307.584 
L 363.389484 307.584 
L 354.615037 307.584 
L 345.84059 307.584 
L 337.066143 307.584 
L 328.291695 307.584 
L 319.517248 307.584 
L 310.742801 307.584 
L 301.968354 307.584 
L 293.193907 307.584 
L 284.419459 307.584 
L 275.645012 307.584 
L 266.870565 307.584 
L 258.096118 307.584 
L 249.321671 307.584 
L 240.547224 307.584 
L 231.772776 307.584 
L 222.998329 307.584 
L 214.223882 307.584 
L 205.449435 307.584 
L 196.674988 307.584 
L 187.900541 307.584 
L 179.126093 307.584 
L 170.351646 307.584 
L 161.577199 307.584 
L 152.802752 307.584 
L 144.028305 307.584 
L 135.253857 307.584 
L 126.47941 307.584 
L 117.704963 249.869941 
L 108.930516 277.472317 
L 100.156069 259.907168 
L 91.381622 194.665188 
L 82.607174 121.895287 
L 73.832727 56.653307 
z
" clip-path="url(#pfe41b39ca3)" style="fill: #2ca02c"/>
   </g>
   <g id="PolyCollection_4">
    <path d="M 73.832727 56.653307 
L 73.832727 56.653307 
L 82.607174 121.895287 
L 91.381622 194.665188 
L 100.156069 259.907168 
L 108.930516 277.472317 
L 117.704963 249.869941 
L 126.47941 307.584 
L 135.253857 307.584 
L 144.028305 307.584 
L 152.802752 307.584 
L 161.577199 307.584 
L 170.351646 307.584 
L 179.126093 307.584 
L 187.900541 307.584 
L 196.674988 307.584 
L 205.449435 307.584 
L 214.223882 307.584 
L 222.998329 307.584 
L 231.772776 307.584 
L 240.547224 307.584 
L 249.321671 307.584 
L 258.096118 307.584 
L 266.870565 307.584 
L 275.645012 307.584 
L 284.419459 307.584 
L 293.193907 307.584 
L 301.968354 307.584 
L 310.742801 307.584 
L 319.517248 307.584 
L 328.291695 307.584 
L 337.066143 307.584 
L 345.84059 307.584 
L 354.615037 307.584 
L 363.389484 307.584 
L 372.163931 307.584 
L 380.938378 307.584 
L 389.712826 307.584 
L 398.487273 307.584 
L 398.487273 307.584 
L 398.487273 307.584 
L 389.712826 307.584 
L 380.938378 307.584 
L 372.163931 307.584 
L 363.389484 307.584 
L 354.615037 307.584 
L 345.84059 307.584 
L 337.066143 307.584 
L 328.291695 307.584 
L 319.517248 307.584 
L 310.742801 307.584 
L 301.968354 307.584 
L 293.193907 307.584 
L 284.419459 307.584 
L 275.645012 307.584 
L 266.870565 307.584 
L 258.096118 307.584 
L 249.321671 307.584 
L 240.547224 307.584 
L 231.772776 307.584 
L 222.998329 307.584 
L 214.223882 307.584 
L 205.449435 307.584 
L 196.674988 307.584 
L 187.900541 307.584 
L 179.126093 307.584 
L 170.351646 307.584 
L 161.577199 307.584 
L 152.802752 307.584 
L 144.028305 307.584 
L 135.253857 307.584 
L 126.47941 307.584 
L 117.704963 219.758257 
L 108.930516 259.907168 
L 100.156069 224.776871 
L 91.381622 152.00697 
L 82.607174 89.274297 
L 73.832727 56.653307 
z
" clip-path="url(#pfe41b39ca3)" style="fill: #d62728"/>
   </g>
   <g id="PolyCollection_5">
    <path d="M 73.832727 56.653307 
L 73.832727 56.653307 
L 82.607174 89.274297 
L 91.381622 152.00697 
L 100.156069 224.776871 
L 108.930516 259.907168 
L 117.704963 219.758257 
L 126.47941 307.584 
L 135.253857 307.584 
L 144.028305 307.584 
L 152.802752 307.584 
L 161.577199 307.584 
L 170.351646 307.584 
L 179.126093 307.584 
L 187.900541 307.584 
L 196.674988 307.584 
L 205.449435 307.584 
L 214.223882 307.584 
L 222.998329 307.584 
L 231.772776 307.584 
L 240.547224 307.584 
L 249.321671 307.584 
L 258.096118 307.584 
L 266.870565 307.584 
L 275.645012 307.584 
L 284.419459 307.584 
L 293.193907 307.584 
L 301.968354 307.584 
L 310.742801 307.584 
L 319.517248 307.584 
L 328.291695 307.584 
L 337.066143 307.584 
L 345.84059 307.584 
L 354.615037 307.584 
L 363.389484 307.584 
L 372.163931 307.584 
L 380.938378 307.584 
L 389.712826 307.584 
L 398.487273 307.584 
L 398.487273 307.584 
L 398.487273 307.584 
L 389.712826 307.584 
L 380.938378 307.584 
L 372.163931 307.584 
L 363.389484 307.584 
L 354.615037 307.584 
L 345.84059 307.584 
L 337.066143 307.584 
L 328.291695 307.584 
L 319.517248 307.584 
L 310.742801 307.584 
L 301.968354 307.584 
L 293.193907 307.584 
L 284.419459 307.584 
L 275.645012 307.584 
L 266.870565 307.584 
L 258.096118 307.584 
L 249.321671 307.584 
L 240.547224 307.584 
L 231.772776 307.584 
L 222.998329 307.584 
L 214.223882 307.584 
L 205.449435 307.584 
L 196.674988 307.584 
L 187.900541 307.584 
L 179.126093 307.584 
L 170.351646 307.584 
L 161.577199 307.584 
L 152.802752 307.584 
L 144.028305 307.584 
L 135.253857 307.584 
L 126.47941 307.584 
L 117.704963 219.758257 
L 108.930516 222.267564 
L 100.156069 192.155881 
L 91.381622 121.895287 
L 82.607174 71.709149 
L 73.832727 56.653307 
z
" clip-path="url(#pfe41b39ca3)" style="fill: #9467bd"/>
   </g>
   <g id="PolyCollection_6">
    <path d="M 73.832727 56.653307 
L 73.832727 56.653307 
L 82.607174 71.709149 
L 91.381622 121.895287 
L 100.156069 192.155881 
L 108.930516 222.267564 
L 117.704963 219.758257 
L 126.47941 307.584 
L 135.253857 307.584 
L 144.028305 307.584 
L 152.802752 307.584 
L 161.577199 307.584 
L 170.351646 307.584 
L 179.126093 307.584 
L 187.900541 307.584 
L 196.674988 307.584 
L 205.449435 307.584 
L 214.223882 307.584 
L 222.998329 307.584 
L 231.772776 307.584 
L 240.547224 307.584 
L 249.321671 307.584 
L 258.096118 307.584 
L 266.870565 307.584 
L 275.645012 307.584 
L 284.419459 307.584 
L 293.193907 307.584 
L 301.968354 307.584 
L 310.742801 307.584 
L 319.517248 307.584 
L 328.291695 307.584 
L 337.066143 307.584 
L 345.84059 307.584 
L 354.615037 307.584 
L 363.389484 307.584 
L 372.163931 307.584 
L 380.938378 307.584 
L 389.712826 307.584 
L 398.487273 307.584 
L 398.487273 307.584 
L 398.487273 307.584 
L 389.712826 307.584 
L 380.938378 307.584 
L 372.163931 307.584 
L 363.389484 307.584 
L 354.615037 307.584 
L 345.84059 307.584 
L 337.066143 307.584 
L 328.291695 307.584 
L 319.517248 307.584 
L 310.742801 307.584 
L 301.968354 307.584 
L 293.193907 307.584 
L 284.419459 307.584 
L 275.645012 307.584 
L 266.870565 307.584 
L 258.096118 307.584 
L 249.321671 307.584 
L 240.547224 307.584 
L 231.772776 307.584 
L 222.998329 307.584 
L 214.223882 307.584 
L 205.449435 307.584 
L 196.674988 307.584 
L 187.900541 307.584 
L 179.126093 307.584 
L 170.351646 307.584 
L 161.577199 307.584 
L 152.802752 307.584 
L 144.028305 307.584 
L 135.253857 307.584 
L 126.47941 219.758257 
L 117.704963 167.062812 
L 108.930516 169.572119 
L 100.156069 94.292911 
L 91.381622 84.255683 
L 82.607174 56.653307 
L 73.832727 56.653307 
z
" clip-path="url(#pfe41b39ca3)" style="fill: #8c564b"/>
   </g>
   <g id="PolyCollection_7">
    <path d="M 73.832727 56.653307 
L 73.832727 56.653307 
L 82.607174 56.653307 
L 91.381622 84.255683 
L 100.156069 94.292911 
L 108.930516 169.572119 
L 117.704963 167.062812 
L 126.47941 219.758257 
L 135.253857 307.584 
L 144.028305 307.584 
L 152.802752 307.584 
L 161.577199 307.584 
L 170.351646 307.584 
L 179.126093 307.584 
L 187.900541 307.584 
L 196.674988 307.584 
L 205.449435 307.584 
L 214.223882 307.584 
L 222.998329 307.584 
L 231.772776 307.584 
L 240.547224 307.584 
L 249.321671 307.584 
L 258.096118 307.584 
L 266.870565 307.584 
L 275.645012 307.584 
L 284.419459 307.584 
L 293.193907 307.584 
L 301.968354 307.584 
L 310.742801 307.584 
L 319.517248 307.584 
L 328.291695 307.584 
L 337.066143 307.584 
L 345.84059 307.584 
L 354.615037 307.584 
L 363.389484 307.584 
L 372.163931 307.584 
L 380.938378 307.584 
L 389.712826 307.584 
L 398.487273 307.584 
L 398.487273 307.584 
L 398.487273 307.584 
L 389.712826 307.584 
L 380.938378 307.584 
L 372.163931 307.584 
L 363.389484 307.584 
L 354.615037 307.584 
L 345.84059 307.584 
L 337.066143 307.584 
L 328.291695 307.584 
L 319.517248 307.584 
L 310.742801 307.584 
L 301.968354 307.584 
L 293.193907 307.584 
L 284.419459 307.584 
L 275.645012 307.584 
L 266.870565 307.584 
L 258.096118 307.584 
L 249.321671 307.584 
L 240.547224 307.584 
L 231.772776 307.584 
L 222.998329 307.584 
L 214.223882 307.584 
L 205.449435 307.584 
L 196.674988 307.584 
L 187.900541 307.584 
L 179.126093 307.584 
L 170.351646 307.584 
L 161.577199 307.584 
L 152.802752 307.584 
L 144.028305 307.584 
L 135.253857 307.584 
L 126.47941 219.758257 
L 117.704963 162.044198 
L 108.930516 162.044198 
L 100.156069 89.274297 
L 91.381622 61.671921 
L 82.607174 56.653307 
L 73.832727 56.653307 
z
" clip-path="url(#pfe41b39ca3)" style="fill: #e377c2"/>
   </g>
   <g id="PolyCollection_8">
    <path d="M 73.832727 56.653307 
L 73.832727 56.653307 
L 82.607174 56.653307 
L 91.381622 61.671921 
L 100.156069 89.274297 
L 108.930516 162.044198 
L 117.704963 162.044198 
L 126.47941 219.758257 
L 135.253857 307.584 
L 144.028305 307.584 
L 152.802752 307.584 
L 161.577199 307.584 
L 170.351646 307.584 
L 179.126093 307.584 
L 187.900541 307.584 
L 196.674988 307.584 
L 205.449435 307.584 
L 214.223882 307.584 
L 222.998329 307.584 
L 231.772776 307.584 
L 240.547224 307.584 
L 249.321671 307.584 
L 258.096118 307.584 
L 266.870565 307.584 
L 275.645012 307.584 
L 284.419459 307.584 
L 293.193907 307.584 
L 301.968354 307.584 
L 310.742801 307.584 
L 319.517248 307.584 
L 328.291695 307.584 
L 337.066143 307.584 
L 345.84059 307.584 
L 354.615037 307.584 
L 363.389484 307.584 
L 372.163931 307.584 
L 380.938378 307.584 
L 389.712826 307.584 
L 398.487273 307.584 
L 398.487273 307.584 
L 398.487273 307.584 
L 389.712826 307.584 
L 380.938378 307.584 
L 372.163931 307.584 
L 363.389484 307.584 
L 354.615037 307.584 
L 345.84059 307.584 
L 337.066143 307.584 
L 328.291695 307.584 
L 319.517248 307.584 
L 310.742801 307.584 
L 301.968354 307.584 
L 293.193907 307.584 
L 284.419459 307.584 
L 275.645012 307.584 
L 266.870565 307.584 
L 258.096118 307.584 
L 249.321671 307.584 
L 240.547224 307.584 
L 231.772776 307.584 
L 222.998329 307.584 
L 214.223882 307.584 
L 205.449435 307.584 
L 196.674988 307.584 
L 187.900541 232.304792 
L 179.126093 249.869941 
L 170.351646 207.211723 
L 161.577199 199.683802 
L 152.802752 187.137267 
L 144.028305 189.646574 
L 135.253857 184.62796 
L 126.47941 144.47905 
L 117.704963 134.441822 
L 108.930516 139.460436 
L 100.156069 74.218455 
L 91.381622 54.144 
L 82.607174 56.653307 
L 73.832727 56.653307 
z
" clip-path="url(#pfe41b39ca3)" style="fill: #7f7f7f"/>
   </g>
   <g id="PolyCollection_9">
    <path d="M 73.832727 56.653307 
L 73.832727 56.653307 
L 82.607174 56.653307 
L 91.381622 54.144 
L 100.156069 74.218455 
L 108.930516 139.460436 
L 117.704963 134.441822 
L 126.47941 144.47905 
L 135.253857 184.62796 
L 144.028305 189.646574 
L 152.802752 187.137267 
L 161.577199 199.683802 
L 170.351646 207.211723 
L 179.126093 249.869941 
L 187.900541 232.304792 
L 196.674988 307.584 
L 205.449435 307.584 
L 214.223882 307.584 
L 222.998329 307.584 
L 231.772776 307.584 
L 240.547224 307.584 
L 249.321671 307.584 
L 258.096118 307.584 
L 266.870565 307.584 
L 275.645012 307.584 
L 284.419459 307.584 
L 293.193907 307.584 
L 301.968354 307.584 
L 310.742801 307.584 
L 319.517248 307.584 
L 328.291695 307.584 
L 337.066143 307.584 
L 345.84059 307.584 
L 354.615037 307.584 
L 363.389484 307.584 
L 372.163931 307.584 
L 380.938378 307.584 
L 389.712826 307.584 
L 398.487273 307.584 
L 398.487273 307.584 
L 398.487273 307.584 
L 389.712826 307.584 
L 380.938378 307.584 
L 372.163931 307.584 
L 363.389484 307.584 
L 354.615037 307.584 
L 345.84059 307.584 
L 337.066143 307.584 
L 328.291695 307.584 
L 319.517248 307.584 
L 310.742801 307.584 
L 301.968354 307.584 
L 293.193907 307.584 
L 284.419459 307.584 
L 275.645012 307.584 
L 266.870565 307.584 
L 258.096118 307.584 
L 249.321671 307.584 
L 240.547224 307.584 
L 231.772776 257.397861 
L 222.998329 249.869941 
L 214.223882 259.907168 
L 205.449435 244.851327 
L 196.674988 264.925782 
L 187.900541 204.702416 
L 179.126093 162.044198 
L 170.351646 74.218455 
L 161.577199 56.653307 
L 152.802752 56.653307 
L 144.028305 56.653307 
L 135.253857 56.653307 
L 126.47941 59.162614 
L 117.704963 56.653307 
L 108.930516 56.653307 
L 100.156069 56.653307 
L 91.381622 54.144 
L 82.607174 56.653307 
L 73.832727 56.653307 
z
" clip-path="url(#pfe41b39ca3)" style="fill: #bcbd22"/>
   </g>
   <g id="PolyCollection_10">
    <path d="M 73.832727 56.653307 
L 73.832727 56.653307 
L 82.607174 56.653307 
L 91.381622 54.144 
L 100.156069 56.653307 
L 108.930516 56.653307 
L 117.704963 56.653307 
L 126.47941 59.162614 
L 135.253857 56.653307 
L 144.028305 56.653307 
L 152.802752 56.653307 
L 161.577199 56.653307 
L 170.351646 74.218455 
L 179.126093 162.044198 
L 187.900541 204.702416 
L 196.674988 264.925782 
L 205.449435 244.851327 
L 214.223882 259.907168 
L 222.998329 249.869941 
L 231.772776 257.397861 
L 240.547224 307.584 
L 249.321671 307.584 
L 258.096118 307.584 
L 266.870565 307.584 
L 275.645012 307.584 
L 284.419459 307.584 
L 293.193907 307.584 
L 301.968354 307.584 
L 310.742801 307.584 
L 319.517248 307.584 
L 328.291695 307.584 
L 337.066143 307.584 
L 345.84059 307.584 
L 354.615037 307.584 
L 363.389484 307.584 
L 372.163931 307.584 
L 380.938378 307.584 
L 389.712826 307.584 
L 398.487273 307.584 
L 398.487273 307.584 
L 398.487273 307.584 
L 389.712826 307.584 
L 380.938378 307.584 
L 372.163931 307.584 
L 363.389484 307.584 
L 354.615037 307.584 
L 345.84059 307.584 
L 337.066143 307.584 
L 328.291695 307.584 
L 319.517248 307.584 
L 310.742801 307.584 
L 301.968354 307.584 
L 293.193907 307.584 
L 284.419459 307.584 
L 275.645012 307.584 
L 266.870565 307.584 
L 258.096118 307.584 
L 249.321671 307.584 
L 240.547224 307.584 
L 231.772776 257.397861 
L 222.998329 249.869941 
L 214.223882 259.907168 
L 205.449435 244.851327 
L 196.674988 214.739644 
L 187.900541 167.062812 
L 179.126093 76.727762 
L 170.351646 56.653307 
L 161.577199 56.653307 
L 152.802752 56.653307 
L 144.028305 56.653307 
L 135.253857 56.653307 
L 126.47941 59.162614 
L 117.704963 56.653307 
L 108.930516 56.653307 
L 100.156069 56.653307 
L 91.381622 54.144 
L 82.607174 56.653307 
L 73.832727 56.653307 
z
" clip-path="url(#pfe41b39ca3)" style="fill: #17becf"/>
   </g>
   <g id="PolyCollection_11">
    <path d="M 73.832727 56.653307 
L 73.832727 56.653307 
L 82.607174 56.653307 
L 91.381622 54.144 
L 100.156069 56.653307 
L 108.930516 56.653307 
L 117.704963 56.653307 
L 126.47941 59.162614 
L 135.253857 56.653307 
L 144.028305 56.653307 
L 152.802752 56.653307 
L 161.577199 56.653307 
L 170.351646 56.653307 
L 179.126093 76.727762 
L 187.900541 167.062812 
L 196.674988 214.739644 
L 205.449435 244.851327 
L 214.223882 259.907168 
L 222.998329 249.869941 
L 231.772776 257.397861 
L 240.547224 307.584 
L 249.321671 307.584 
L 258.096118 307.584 
L 266.870565 307.584 
L 275.645012 307.584 
L 284.419459 307.584 
L 293.193907 307.584 
L 301.968354 307.584 
L 310.742801 307.584 
L 319.517248 307.584 
L 328.291695 307.584 
L 337.066143 307.584 
L 345.84059 307.584 
L 354.615037 307.584 
L 363.389484 307.584 
L 372.163931 307.584 
L 380.938378 307.584 
L 389.712826 307.584 
L 398.487273 307.584 
L 398.487273 307.584 
L 398.487273 307.584 
L 389.712826 307.584 
L 380.938378 307.584 
L 372.163931 307.584 
L 363.389484 307.584 
L 354.615037 307.584 
L 345.84059 307.584 
L 337.066143 307.584 
L 328.291695 307.584 
L 319.517248 307.584 
L 310.742801 307.584 
L 301.968354 307.584 
L 293.193907 307.584 
L 284.419459 202.193109 
L 275.645012 214.739644 
L 266.870565 212.230337 
L 258.096118 224.776871 
L 249.321671 237.323406 
L 240.547224 237.323406 
L 231.772776 219.758257 
L 222.998329 199.683802 
L 214.223882 224.776871 
L 205.449435 209.72103 
L 196.674988 177.10004 
L 187.900541 129.423208 
L 179.126093 66.690535 
L 170.351646 56.653307 
L 161.577199 56.653307 
L 152.802752 56.653307 
L 144.028305 56.653307 
L 135.253857 56.653307 
L 126.47941 59.162614 
L 117.704963 56.653307 
L 108.930516 56.653307 
L 100.156069 56.653307 
L 91.381622 54.144 
L 82.607174 56.653307 
L 73.832727 56.653307 
z
" clip-path="url(#pfe41b39ca3)" style="fill: #1f77b4"/>
   </g>
   <g id="PolyCollection_12">
    <path d="M 73.832727 56.653307 
L 73.832727 56.653307 
L 82.607174 56.653307 
L 91.381622 54.144 
L 100.156069 56.653307 
L 108.930516 56.653307 
L 117.704963 56.653307 
L 126.47941 59.162614 
L 135.253857 56.653307 
L 144.028305 56.653307 
L 152.802752 56.653307 
L 161.577199 56.653307 
L 170.351646 56.653307 
L 179.126093 66.690535 
L 187.900541 129.423208 
L 196.674988 177.10004 
L 205.449435 209.72103 
L 214.223882 224.776871 
L 222.998329 199.683802 
L 231.772776 219.758257 
L 240.547224 237.323406 
L 249.321671 237.323406 
L 258.096118 224.776871 
L 266.870565 212.230337 
L 275.645012 214.739644 
L 284.419459 202.193109 
L 293.193907 307.584 
L 301.968354 307.584 
L 310.742801 307.584 
L 319.517248 307.584 
L 328.291695 307.584 
L 337.066143 307.584 
L 345.84059 307.584 
L 354.615037 307.584 
L 363.389484 307.584 
L 372.163931 307.584 
L 380.938378 307.584 
L 389.712826 307.584 
L 398.487273 307.584 
L 398.487273 307.584 
L 398.487273 307.584 
L 389.712826 307.584 
L 380.938378 307.584 
L 372.163931 307.584 
L 363.389484 307.584 
L 354.615037 307.584 
L 345.84059 307.584 
L 337.066143 307.584 
L 328.291695 307.584 
L 319.517248 307.584 
L 310.742801 307.584 
L 301.968354 307.584 
L 293.193907 307.584 
L 284.419459 202.193109 
L 275.645012 214.739644 
L 266.870565 212.230337 
L 258.096118 224.776871 
L 249.321671 237.323406 
L 240.547224 237.323406 
L 231.772776 219.758257 
L 222.998329 199.683802 
L 214.223882 177.10004 
L 205.449435 146.988356 
L 196.674988 129.423208 
L 187.900541 86.76499 
L 179.126093 56.653307 
L 170.351646 56.653307 
L 161.577199 56.653307 
L 152.802752 56.653307 
L 144.028305 56.653307 
L 135.253857 56.653307 
L 126.47941 59.162614 
L 117.704963 56.653307 
L 108.930516 56.653307 
L 100.156069 56.653307 
L 91.381622 54.144 
L 82.607174 56.653307 
L 73.832727 56.653307 
z
" clip-path="url(#pfe41b39ca3)" style="fill: #ff7f0e"/>
   </g>
   <g id="PolyCollection_13">
    <path d="M 73.832727 56.653307 
L 73.832727 56.653307 
L 82.607174 56.653307 
L 91.381622 54.144 
L 100.156069 56.653307 
L 108.930516 56.653307 
L 117.704963 56.653307 
L 126.47941 59.162614 
L 135.253857 56.653307 
L 144.028305 56.653307 
L 152.802752 56.653307 
L 161.577199 56.653307 
L 170.351646 56.653307 
L 179.126093 56.653307 
L 187.900541 86.76499 
L 196.674988 129.423208 
L 205.449435 146.988356 
L 214.223882 177.10004 
L 222.998329 199.683802 
L 231.772776 219.758257 
L 240.547224 237.323406 
L 249.321671 237.323406 
L 258.096118 224.776871 
L 266.870565 212.230337 
L 275.645012 214.739644 
L 284.419459 202.193109 
L 293.193907 307.584 
L 301.968354 307.584 
L 310.742801 307.584 
L 319.517248 307.584 
L 328.291695 307.584 
L 337.066143 307.584 
L 345.84059 307.584 
L 354.615037 307.584 
L 363.389484 307.584 
L 372.163931 307.584 
L 380.938378 307.584 
L 389.712826 307.584 
L 398.487273 307.584 
L 398.487273 307.584 
L 398.487273 307.584 
L 389.712826 307.584 
L 380.938378 307.584 
L 372.163931 307.584 
L 363.389484 307.584 
L 354.615037 307.584 
L 345.84059 307.584 
L 337.066143 307.584 
L 328.291695 307.584 
L 319.517248 307.584 
L 310.742801 307.584 
L 301.968354 307.584 
L 293.193907 307.584 
L 284.419459 202.193109 
L 275.645012 214.739644 
L 266.870565 212.230337 
L 258.096118 224.776871 
L 249.321671 187.137267 
L 240.547224 182.118653 
L 231.772776 174.590733 
L 222.998329 169.572119 
L 214.223882 146.988356 
L 205.449435 129.423208 
L 196.674988 124.404594 
L 187.900541 84.255683 
L 179.126093 56.653307 
L 170.351646 56.653307 
L 161.577199 56.653307 
L 152.802752 56.653307 
L 144.028305 56.653307 
L 135.253857 56.653307 
L 126.47941 59.162614 
L 117.704963 56.653307 
L 108.930516 56.653307 
L 100.156069 56.653307 
L 91.381622 54.144 
L 82.607174 56.653307 
L 73.832727 56.653307 
z
" clip-path="url(#pfe41b39ca3)" style="fill: #2ca02c"/>
   </g>
   <g id="PolyCollection_14">
    <path d="M 73.832727 56.653307 
L 73.832727 56.653307 
L 82.607174 56.653307 
L 91.381622 54.144 
L 100.156069 56.653307 
L 108.930516 56.653307 
L 117.704963 56.653307 
L 126.47941 59.162614 
L 135.253857 56.653307 
L 144.028305 56.653307 
L 152.802752 56.653307 
L 161.577199 56.653307 
L 170.351646 56.653307 
L 179.126093 56.653307 
L 187.900541 84.255683 
L 196.674988 124.404594 
L 205.449435 129.423208 
L 214.223882 146.988356 
L 222.998329 169.572119 
L 231.772776 174.590733 
L 240.547224 182.118653 
L 249.321671 187.137267 
L 258.096118 224.776871 
L 266.870565 212.230337 
L 275.645012 214.739644 
L 284.419459 202.193109 
L 293.193907 307.584 
L 301.968354 307.584 
L 310.742801 307.584 
L 319.517248 307.584 
L 328.291695 307.584 
L 337.066143 307.584 
L 345.84059 307.584 
L 354.615037 307.584 
L 363.389484 307.584 
L 372.163931 307.584 
L 380.938378 307.584 
L 389.712826 307.584 
L 398.487273 307.584 
L 398.487273 307.584 
L 398.487273 307.584 
L 389.712826 307.584 
L 380.938378 307.584 
L 372.163931 307.584 
L 363.389484 307.584 
L 354.615037 307.584 
L 345.84059 307.584 
L 337.066143 307.584 
L 328.291695 307.584 
L 319.517248 307.584 
L 310.742801 307.584 
L 301.968354 307.584 
L 293.193907 307.584 
L 284.419459 202.193109 
L 275.645012 214.739644 
L 266.870565 212.230337 
L 258.096118 224.776871 
L 249.321671 187.137267 
L 240.547224 157.025584 
L 231.772776 141.969743 
L 222.998329 126.913901 
L 214.223882 116.876673 
L 205.449435 81.746376 
L 196.674988 79.237069 
L 187.900541 64.181228 
L 179.126093 56.653307 
L 170.351646 56.653307 
L 161.577199 56.653307 
L 152.802752 56.653307 
L 144.028305 56.653307 
L 135.253857 56.653307 
L 126.47941 59.162614 
L 117.704963 56.653307 
L 108.930516 56.653307 
L 100.156069 56.653307 
L 91.381622 54.144 
L 82.607174 56.653307 
L 73.832727 56.653307 
z
" clip-path="url(#pfe41b39ca3)" style="fill: #d62728"/>
   </g>
   <g id="PolyCollection_15">
    <path d="M 73.832727 56.653307 
L 73.832727 56.653307 
L 82.607174 56.653307 
L 91.381622 54.144 
L 100.156069 56.653307 
L 108.930516 56.653307 
L 117.704963 56.653307 
L 126.47941 59.162614 
L 135.253857 56.653307 
L 144.028305 56.653307 
L 152.802752 56.653307 
L 161.577199 56.653307 
L 170.351646 56.653307 
L 179.126093 56.653307 
L 187.900541 64.181228 
L 196.674988 79.237069 
L 205.449435 81.746376 
L 214.223882 116.876673 
L 222.998329 126.913901 
L 231.772776 141.969743 
L 240.547224 157.025584 
L 249.321671 187.137267 
L 258.096118 224.776871 
L 266.870565 212.230337 
L 275.645012 214.739644 
L 284.419459 202.193109 
L 293.193907 307.584 
L 301.968354 307.584 
L 310.742801 307.584 
L 319.517248 307.584 
L 328.291695 307.584 
L 337.066143 307.584 
L 345.84059 307.584 
L 354.615037 307.584 
L 363.389484 307.584 
L 372.163931 307.584 
L 380.938378 307.584 
L 389.712826 307.584 
L 398.487273 307.584 
L 398.487273 307.584 
L 398.487273 307.584 
L 389.712826 307.584 
L 380.938378 307.584 
L 372.163931 307.584 
L 363.389484 307.584 
L 354.615037 307.584 
L 345.84059 307.584 
L 337.066143 307.584 
L 328.291695 307.584 
L 319.517248 307.584 
L 310.742801 307.584 
L 301.968354 307.584 
L 293.193907 307.584 
L 284.419459 104.330139 
L 275.645012 134.441822 
L 266.870565 129.423208 
L 258.096118 157.025584 
L 249.321671 139.460436 
L 240.547224 109.348752 
L 231.772776 101.820832 
L 222.998329 79.237069 
L 214.223882 56.653307 
L 205.449435 56.653307 
L 196.674988 54.144 
L 187.900541 56.653307 
L 179.126093 56.653307 
L 170.351646 56.653307 
L 161.577199 56.653307 
L 152.802752 56.653307 
L 144.028305 56.653307 
L 135.253857 56.653307 
L 126.47941 59.162614 
L 117.704963 56.653307 
L 108.930516 56.653307 
L 100.156069 56.653307 
L 91.381622 54.144 
L 82.607174 56.653307 
L 73.832727 56.653307 
z
" clip-path="url(#pfe41b39ca3)" style="fill: #9467bd"/>
   </g>
   <g id="PolyCollection_16">
    <path d="M 73.832727 56.653307 
L 73.832727 56.653307 
L 82.607174 56.653307 
L 91.381622 54.144 
L 100.156069 56.653307 
L 108.930516 56.653307 
L 117.704963 56.653307 
L 126.47941 59.162614 
L 135.253857 56.653307 
L 144.028305 56.653307 
L 152.802752 56.653307 
L 161.577199 56.653307 
L 170.351646 56.653307 
L 179.126093 56.653307 
L 187.900541 56.653307 
L 196.674988 54.144 
L 205.449435 56.653307 
L 214.223882 56.653307 
L 222.998329 79.237069 
L 231.772776 101.820832 
L 240.547224 109.348752 
L 249.321671 139.460436 
L 258.096118 157.025584 
L 266.870565 129.423208 
L 275.645012 134.441822 
L 284.419459 104.330139 
L 293.193907 307.584 
L 301.968354 307.584 
L 310.742801 307.584 
L 319.517248 307.584 
L 328.291695 307.584 
L 337.066143 307.584 
L 345.84059 307.584 
L 354.615037 307.584 
L 363.389484 307.584 
L 372.163931 307.584 
L 380.938378 307.584 
L 389.712826 307.584 
L 398.487273 307.584 
L 398.487273 307.584 
L 398.487273 307.584 
L 389.712826 307.584 
L 380.938378 307.584 
L 372.163931 307.584 
L 363.389484 307.584 
L 354.615037 307.584 
L 345.84059 307.584 
L 337.066143 307.584 
L 328.291695 307.584 
L 319.517248 307.584 
L 310.742801 307.584 
L 301.968354 307.584 
L 293.193907 307.584 
L 284.419459 104.330139 
L 275.645012 134.441822 
L 266.870565 129.423208 
L 258.096118 106.839446 
L 249.321671 101.820832 
L 240.547224 64.181228 
L 231.772776 56.653307 
L 222.998329 56.653307 
L 214.223882 56.653307 
L 205.449435 56.653307 
L 196.674988 54.144 
L 187.900541 56.653307 
L 179.126093 56.653307 
L 170.351646 56.653307 
L 161.577199 56.653307 
L 152.802752 56.653307 
L 144.028305 56.653307 
L 135.253857 56.653307 
L 126.47941 59.162614 
L 117.704963 56.653307 
L 108.930516 56.653307 
L 100.156069 56.653307 
L 91.381622 54.144 
L 82.607174 56.653307 
L 73.832727 56.653307 
z
" clip-path="url(#pfe41b39ca3)" style="fill: #8c564b"/>
   </g>
   <g id="PolyCollection_17">
    <path d="M 73.832727 56.653307 
L 73.832727 56.653307 
L 82.607174 56.653307 
L 91.381622 54.144 
L 100.156069 56.653307 
L 108.930516 56.653307 
L 117.704963 56.653307 
L 126.47941 59.162614 
L 135.253857 56.653307 
L 144.028305 56.653307 
L 152.802752 56.653307 
L 161.577199 56.653307 
L 170.351646 56.653307 
L 179.126093 56.653307 
L 187.900541 56.653307 
L 196.674988 54.144 
L 205.449435 56.653307 
L 214.223882 56.653307 
L 222.998329 56.653307 
L 231.772776 56.653307 
L 240.547224 64.181228 
L 249.321671 101.820832 
L 258.096118 106.839446 
L 266.870565 129.423208 
L 275.645012 134.441822 
L 284.419459 104.330139 
L 293.193907 307.584 
L 301.968354 307.584 
L 310.742801 307.584 
L 319.517248 307.584 
L 328.291695 307.584 
L 337.066143 307.584 
L 345.84059 307.584 
L 354.615037 307.584 
L 363.389484 307.584 
L 372.163931 307.584 
L 380.938378 307.584 
L 389.712826 307.584 
L 398.487273 307.584 
L 398.487273 307.584 
L 398.487273 307.584 
L 389.712826 307.584 
L 380.938378 307.584 
L 372.163931 307.584 
L 363.389484 307.584 
L 354.615037 307.584 
L 345.84059 307.584 
L 337.066143 307.584 
L 328.291695 307.584 
L 319.517248 307.584 
L 310.742801 307.584 
L 301.968354 307.584 
L 293.193907 307.584 
L 284.419459 104.330139 
L 275.645012 91.783604 
L 266.870565 56.653307 
L 258.096118 56.653307 
L 249.321671 56.653307 
L 240.547224 56.653307 
L 231.772776 56.653307 
L 222.998329 56.653307 
L 214.223882 56.653307 
L 205.449435 56.653307 
L 196.674988 54.144 
L 187.900541 56.653307 
L 179.126093 56.653307 
L 170.351646 56.653307 
L 161.577199 56.653307 
L 152.802752 56.653307 
L 144.028305 56.653307 
L 135.253857 56.653307 
L 126.47941 59.162614 
L 117.704963 56.653307 
L 108.930516 56.653307 
L 100.156069 56.653307 
L 91.381622 54.144 
L 82.607174 56.653307 
L 73.832727 56.653307 
z
" clip-path="url(#pfe41b39ca3)" style="fill: #e377c2"/>
   </g>
   <g id="PolyCollection_18">
    <path d="M 73.832727 56.653307 
L 73.832727 56.653307 
L 82.607174 56.653307 
L 91.381622 54.144 
L 100.156069 56.653307 
L 108.930516 56.653307 
L 117.704963 56.653307 
L 126.47941 59.162614 
L 135.253857 56.653307 
L 144.028305 56.653307 
L 152.802752 56.653307 
L 161.577199 56.653307 
L 170.351646 56.653307 
L 179.126093 56.653307 
L 187.900541 56.653307 
L 196.674988 54.144 
L 205.449435 56.653307 
L 214.223882 56.653307 
L 222.998329 56.653307 
L 231.772776 56.653307 
L 240.547224 56.653307 
L 249.321671 56.653307 
L 258.096118 56.653307 
L 266.870565 56.653307 
L 275.645012 91.783604 
L 284.419459 104.330139 
L 293.193907 307.584 
L 301.968354 307.584 
L 310.742801 307.584 
L 319.517248 307.584 
L 328.291695 307.584 
L 337.066143 307.584 
L 345.84059 307.584 
L 354.615037 307.584 
L 363.389484 307.584 
L 372.163931 307.584 
L 380.938378 307.584 
L 389.712826 307.584 
L 398.487273 307.584 
L 398.487273 307.584 
L 398.487273 307.584 
L 389.712826 307.584 
L 380.938378 307.584 
L 372.163931 307.584 
L 363.389484 307.584 
L 354.615037 307.584 
L 345.84059 307.584 
L 337.066143 307.584 
L 328.291695 307.584 
L 319.517248 307.584 
L 310.742801 249.869941 
L 301.968354 99.311525 
L 293.193907 59.162614 
L 284.419459 56.653307 
L 275.645012 59.162614 
L 266.870565 56.653307 
L 258.096118 56.653307 
L 249.321671 56.653307 
L 240.547224 56.653307 
L 231.772776 56.653307 
L 222.998329 56.653307 
L 214.223882 56.653307 
L 205.449435 56.653307 
L 196.674988 54.144 
L 187.900541 56.653307 
L 179.126093 56.653307 
L 170.351646 56.653307 
L 161.577199 56.653307 
L 152.802752 56.653307 
L 144.028305 56.653307 
L 135.253857 56.653307 
L 126.47941 59.162614 
L 117.704963 56.653307 
L 108.930516 56.653307 
L 100.156069 56.653307 
L 91.381622 54.144 
L 82.607174 56.653307 
L 73.832727 56.653307 
z
" clip-path="url(#pfe41b39ca3)" style="fill: #7f7f7f"/>
   </g>
   <g id="PolyCollection_19">
    <path d="M 73.832727 56.653307 
L 73.832727 56.653307 
L 82.607174 56.653307 
L 91.381622 54.144 
L 100.156069 56.653307 
L 108.930516 56.653307 
L 117.704963 56.653307 
L 126.47941 59.162614 
L 135.253857 56.653307 
L 144.028305 56.653307 
L 152.802752 56.653307 
L 161.577199 56.653307 
L 170.351646 56.653307 
L 179.126093 56.653307 
L 187.900541 56.653307 
L 196.674988 54.144 
L 205.449435 56.653307 
L 214.223882 56.653307 
L 222.998329 56.653307 
L 231.772776 56.653307 
L 240.547224 56.653307 
L 249.321671 56.653307 
L 258.096118 56.653307 
L 266.870565 56.653307 
L 275.645012 59.162614 
L 284.419459 56.653307 
L 293.193907 59.162614 
L 301.968354 99.311525 
L 310.742801 249.869941 
L 319.517248 307.584 
L 328.291695 307.584 
L 337.066143 307.584 
L 345.84059 307.584 
L 354.615037 307.584 
L 363.389484 307.584 
L 372.163931 307.584 
L 380.938378 307.584 
L 389.712826 307.584 
L 398.487273 307.584 
L 398.487273 232.304792 
L 398.487273 232.304792 
L 389.712826 232.304792 
L 380.938378 242.34202 
L 372.163931 219.758257 
L 363.389484 202.193109 
L 354.615037 207.211723 
L 345.84059 214.739644 
L 337.066143 227.286178 
L 328.291695 239.832713 
L 319.517248 224.776871 
L 310.742801 217.24895 
L 301.968354 74.218455 
L 293.193907 56.653307 
L 284.419459 56.653307 
L 275.645012 59.162614 
L 266.870565 56.653307 
L 258.096118 56.653307 
L 249.321671 56.653307 
L 240.547224 56.653307 
L 231.772776 56.653307 
L 222.998329 56.653307 
L 214.223882 56.653307 
L 205.449435 56.653307 
L 196.674988 54.144 
L 187.900541 56.653307 
L 179.126093 56.653307 
L 170.351646 56.653307 
L 161.577199 56.653307 
L 152.802752 56.653307 
L 144.028305 56.653307 
L 135.253857 56.653307 
L 126.47941 59.162614 
L 117.704963 56.653307 
L 108.930516 56.653307 
L 100.156069 56.653307 
L 91.381622 54.144 
L 82.607174 56.653307 
L 73.832727 56.653307 
z
" clip-path="url(#pfe41b39ca3)" style="fill: #bcbd22"/>
   </g>
   <g id="PolyCollection_20">
    <path d="M 73.832727 56.653307 
L 73.832727 56.653307 
L 82.607174 56.653307 
L 91.381622 54.144 
L 100.156069 56.653307 
L 108.930516 56.653307 
L 117.704963 56.653307 
L 126.47941 59.162614 
L 135.253857 56.653307 
L 144.028305 56.653307 
L 152.802752 56.653307 
L 161.577199 56.653307 
L 170.351646 56.653307 
L 179.126093 56.653307 
L 187.900541 56.653307 
L 196.674988 54.144 
L 205.449435 56.653307 
L 214.223882 56.653307 
L 222.998329 56.653307 
L 231.772776 56.653307 
L 240.547224 56.653307 
L 249.321671 56.653307 
L 258.096118 56.653307 
L 266.870565 56.653307 
L 275.645012 59.162614 
L 284.419459 56.653307 
L 293.193907 56.653307 
L 301.968354 74.218455 
L 310.742801 217.24895 
L 319.517248 224.776871 
L 328.291695 239.832713 
L 337.066143 227.286178 
L 345.84059 214.739644 
L 354.615037 207.211723 
L 363.389484 202.193109 
L 372.163931 219.758257 
L 380.938378 242.34202 
L 389.712826 232.304792 
L 398.487273 232.304792 
L 398.487273 232.304792 
L 398.487273 232.304792 
L 389.712826 232.304792 
L 380.938378 242.34202 
L 372.163931 219.758257 
L 363.389484 129.423208 
L 354.615037 114.367366 
L 345.84059 159.534891 
L 337.066143 136.951129 
L 328.291695 179.609347 
L 319.517248 84.255683 
L 310.742801 56.653307 
L 301.968354 56.653307 
L 293.193907 56.653307 
L 284.419459 56.653307 
L 275.645012 59.162614 
L 266.870565 56.653307 
L 258.096118 56.653307 
L 249.321671 56.653307 
L 240.547224 56.653307 
L 231.772776 56.653307 
L 222.998329 56.653307 
L 214.223882 56.653307 
L 205.449435 56.653307 
L 196.674988 54.144 
L 187.900541 56.653307 
L 179.126093 56.653307 
L 170.351646 56.653307 
L 161.577199 56.653307 
L 152.802752 56.653307 
L 144.028305 56.653307 
L 135.253857 56.653307 
L 126.47941 59.162614 
L 117.704963 56.653307 
L 108.930516 56.653307 
L 100.156069 56.653307 
L 91.381622 54.144 
L 82.607174 56.653307 
L 73.832727 56.653307 
z
" clip-path="url(#pfe41b39ca3)" style="fill: #17becf"/>
   </g>
   <g id="PolyCollection_21">
    <path d="M 73.832727 56.653307 
L 73.832727 56.653307 
L 82.607174 56.653307 
L 91.381622 54.144 
L 100.156069 56.653307 
L 108.930516 56.653307 
L 117.704963 56.653307 
L 126.47941 59.162614 
L 135.253857 56.653307 
L 144.028305 56.653307 
L 152.802752 56.653307 
L 161.577199 56.653307 
L 170.351646 56.653307 
L 179.126093 56.653307 
L 187.900541 56.653307 
L 196.674988 54.144 
L 205.449435 56.653307 
L 214.223882 56.653307 
L 222.998329 56.653307 
L 231.772776 56.653307 
L 240.547224 56.653307 
L 249.321671 56.653307 
L 258.096118 56.653307 
L 266.870565 56.653307 
L 275.645012 59.162614 
L 284.419459 56.653307 
L 293.193907 56.653307 
L 301.968354 56.653307 
L 310.742801 56.653307 
L 319.517248 84.255683 
L 328.291695 179.609347 
L 337.066143 136.951129 
L 345.84059 159.534891 
L 354.615037 114.367366 
L 363.389484 129.423208 
L 372.163931 219.758257 
L 380.938378 242.34202 
L 389.712826 232.304792 
L 398.487273 232.304792 
L 398.487273 232.304792 
L 398.487273 232.304792 
L 389.712826 232.304792 
L 380.938378 242.34202 
L 372.163931 219.758257 
L 363.389484 129.423208 
L 354.615037 114.367366 
L 345.84059 99.311525 
L 337.066143 59.162614 
L 328.291695 59.162614 
L 319.517248 56.653307 
L 310.742801 56.653307 
L 301.968354 56.653307 
L 293.193907 56.653307 
L 284.419459 56.653307 
L 275.645012 59.162614 
L 266.870565 56.653307 
L 258.096118 56.653307 
L 249.321671 56.653307 
L 240.547224 56.653307 
L 231.772776 56.653307 
L 222.998329 56.653307 
L 214.223882 56.653307 
L 205.449435 56.653307 
L 196.674988 54.144 
L 187.900541 56.653307 
L 179.126093 56.653307 
L 170.351646 56.653307 
L 161.577199 56.653307 
L 152.802752 56.653307 
L 144.028305 56.653307 
L 135.253857 56.653307 
L 126.47941 59.162614 
L 117.704963 56.653307 
L 108.930516 56.653307 
L 100.156069 56.653307 
L 91.381622 54.144 
L 82.607174 56.653307 
L 73.832727 56.653307 
z
" clip-path="url(#pfe41b39ca3)" style="fill: #1f77b4"/>
   </g>
   <g id="PolyCollection_22">
    <path d="M 73.832727 56.653307 
L 73.832727 56.653307 
L 82.607174 56.653307 
L 91.381622 54.144 
L 100.156069 56.653307 
L 108.930516 56.653307 
L 117.704963 56.653307 
L 126.47941 59.162614 
L 135.253857 56.653307 
L 144.028305 56.653307 
L 152.802752 56.653307 
L 161.577199 56.653307 
L 170.351646 56.653307 
L 179.126093 56.653307 
L 187.900541 56.653307 
L 196.674988 54.144 
L 205.449435 56.653307 
L 214.223882 56.653307 
L 222.998329 56.653307 
L 231.772776 56.653307 
L 240.547224 56.653307 
L 249.321671 56.653307 
L 258.096118 56.653307 
L 266.870565 56.653307 
L 275.645012 59.162614 
L 284.419459 56.653307 
L 293.193907 56.653307 
L 301.968354 56.653307 
L 310.742801 56.653307 
L 319.517248 56.653307 
L 328.291695 59.162614 
L 337.066143 59.162614 
L 345.84059 99.311525 
L 354.615037 114.367366 
L 363.389484 129.423208 
L 372.163931 219.758257 
L 380.938378 242.34202 
L 389.712826 232.304792 
L 398.487273 232.304792 
L 398.487273 232.304792 
L 398.487273 232.304792 
L 389.712826 232.304792 
L 380.938378 197.174495 
L 372.163931 149.497663 
L 363.389484 79.237069 
L 354.615037 54.144 
L 345.84059 56.653307 
L 337.066143 59.162614 
L 328.291695 59.162614 
L 319.517248 56.653307 
L 310.742801 56.653307 
L 301.968354 56.653307 
L 293.193907 56.653307 
L 284.419459 56.653307 
L 275.645012 59.162614 
L 266.870565 56.653307 
L 258.096118 56.653307 
L 249.321671 56.653307 
L 240.547224 56.653307 
L 231.772776 56.653307 
L 222.998329 56.653307 
L 214.223882 56.653307 
L 205.449435 56.653307 
L 196.674988 54.144 
L 187.900541 56.653307 
L 179.126093 56.653307 
L 170.351646 56.653307 
L 161.577199 56.653307 
L 152.802752 56.653307 
L 144.028305 56.653307 
L 135.253857 56.653307 
L 126.47941 59.162614 
L 117.704963 56.653307 
L 108.930516 56.653307 
L 100.156069 56.653307 
L 91.381622 54.144 
L 82.607174 56.653307 
L 73.832727 56.653307 
z
" clip-path="url(#pfe41b39ca3)" style="fill: #ff7f0e"/>
   </g>
   <g id="PolyCollection_23">
    <path d="M 73.832727 56.653307 
L 73.832727 56.653307 
L 82.607174 56.653307 
L 91.381622 54.144 
L 100.156069 56.653307 
L 108.930516 56.653307 
L 117.704963 56.653307 
L 126.47941 59.162614 
L 135.253857 56.653307 
L 144.028305 56.653307 
L 152.802752 56.653307 
L 161.577199 56.653307 
L 170.351646 56.653307 
L 179.126093 56.653307 
L 187.900541 56.653307 
L 196.674988 54.144 
L 205.449435 56.653307 
L 214.223882 56.653307 
L 222.998329 56.653307 
L 231.772776 56.653307 
L 240.547224 56.653307 
L 249.321671 56.653307 
L 258.096118 56.653307 
L 266.870565 56.653307 
L 275.645012 59.162614 
L 284.419459 56.653307 
L 293.193907 56.653307 
L 301.968354 56.653307 
L 310.742801 56.653307 
L 319.517248 56.653307 
L 328.291695 59.162614 
L 337.066143 59.162614 
L 345.84059 56.653307 
L 354.615037 54.144 
L 363.389484 79.237069 
L 372.163931 149.497663 
L 380.938378 197.174495 
L 389.712826 232.304792 
L 398.487273 232.304792 
L 398.487273 189.646574 
L 398.487273 189.646574 
L 389.712826 152.00697 
L 380.938378 111.858059 
L 372.163931 74.218455 
L 363.389484 59.162614 
L 354.615037 54.144 
L 345.84059 56.653307 
L 337.066143 59.162614 
L 328.291695 59.162614 
L 319.517248 56.653307 
L 310.742801 56.653307 
L 301.968354 56.653307 
L 293.193907 56.653307 
L 284.419459 56.653307 
L 275.645012 59.162614 
L 266.870565 56.653307 
L 258.096118 56.653307 
L 249.321671 56.653307 
L 240.547224 56.653307 
L 231.772776 56.653307 
L 222.998329 56.653307 
L 214.223882 56.653307 
L 205.449435 56.653307 
L 196.674988 54.144 
L 187.900541 56.653307 
L 179.126093 56.653307 
L 170.351646 56.653307 
L 161.577199 56.653307 
L 152.802752 56.653307 
L 144.028305 56.653307 
L 135.253857 56.653307 
L 126.47941 59.162614 
L 117.704963 56.653307 
L 108.930516 56.653307 
L 100.156069 56.653307 
L 91.381622 54.144 
L 82.607174 56.653307 
L 73.832727 56.653307 
z
" clip-path="url(#pfe41b39ca3)" style="fill: #2ca02c"/>
   </g>
   <g id="PolyCollection_24">
    <path d="M 73.832727 56.653307 
L 73.832727 56.653307 
L 82.607174 56.653307 
L 91.381622 54.144 
L 100.156069 56.653307 
L 108.930516 56.653307 
L 117.704963 56.653307 
L 126.47941 59.162614 
L 135.253857 56.653307 
L 144.028305 56.653307 
L 152.802752 56.653307 
L 161.577199 56.653307 
L 170.351646 56.653307 
L 179.126093 56.653307 
L 187.900541 56.653307 
L 196.674988 54.144 
L 205.449435 56.653307 
L 214.223882 56.653307 
L 222.998329 56.653307 
L 231.772776 56.653307 
L 240.547224 56.653307 
L 249.321671 56.653307 
L 258.096118 56.653307 
L 266.870565 56.653307 
L 275.645012 59.162614 
L 284.419459 56.653307 
L 293.193907 56.653307 
L 301.968354 56.653307 
L 310.742801 56.653307 
L 319.517248 56.653307 
L 328.291695 59.162614 
L 337.066143 59.162614 
L 345.84059 56.653307 
L 354.615037 54.144 
L 363.389484 59.162614 
L 372.163931 74.218455 
L 380.938378 111.858059 
L 389.712826 152.00697 
L 398.487273 189.646574 
L 398.487273 134.441822 
L 398.487273 134.441822 
L 389.712826 101.820832 
L 380.938378 81.746376 
L 372.163931 64.181228 
L 363.389484 59.162614 
L 354.615037 54.144 
L 345.84059 56.653307 
L 337.066143 59.162614 
L 328.291695 59.162614 
L 319.517248 56.653307 
L 310.742801 56.653307 
L 301.968354 56.653307 
L 293.193907 56.653307 
L 284.419459 56.653307 
L 275.645012 59.162614 
L 266.870565 56.653307 
L 258.096118 56.653307 
L 249.321671 56.653307 
L 240.547224 56.653307 
L 231.772776 56.653307 
L 222.998329 56.653307 
L 214.223882 56.653307 
L 205.449435 56.653307 
L 196.674988 54.144 
L 187.900541 56.653307 
L 179.126093 56.653307 
L 170.351646 56.653307 
L 161.577199 56.653307 
L 152.802752 56.653307 
L 144.028305 56.653307 
L 135.253857 56.653307 
L 126.47941 59.162614 
L 117.704963 56.653307 
L 108.930516 56.653307 
L 100.156069 56.653307 
L 91.381622 54.144 
L 82.607174 56.653307 
L 73.832727 56.653307 
z
" clip-path="url(#pfe41b39ca3)" style="fill: #d62728"/>
   </g>
   <g id="PolyCollection_25">
    <path d="M 73.832727 56.653307 
L 73.832727 56.653307 
L 82.607174 56.653307 
L 91.381622 54.144 
L 100.156069 56.653307 
L 108.930516 56.653307 
L 117.704963 56.653307 
L 126.47941 59.162614 
L 135.253857 56.653307 
L 144.028305 56.653307 
L 152.802752 56.653307 
L 161.577199 56.653307 
L 170.351646 56.653307 
L 179.126093 56.653307 
L 187.900541 56.653307 
L 196.674988 54.144 
L 205.449435 56.653307 
L 214.223882 56.653307 
L 222.998329 56.653307 
L 231.772776 56.653307 
L 240.547224 56.653307 
L 249.321671 56.653307 
L 258.096118 56.653307 
L 266.870565 56.653307 
L 275.645012 59.162614 
L 284.419459 56.653307 
L 293.193907 56.653307 
L 301.968354 56.653307 
L 310.742801 56.653307 
L 319.517248 56.653307 
L 328.291695 59.162614 
L 337.066143 59.162614 
L 345.84059 56.653307 
L 354.615037 54.144 
L 363.389484 59.162614 
L 372.163931 64.181228 
L 380.938378 81.746376 
L 389.712826 101.820832 
L 398.487273 134.441822 
L 398.487273 99.311525 
L 398.487273 99.311525 
L 389.712826 64.181228 
L 380.938378 56.653307 
L 372.163931 56.653307 
L 363.389484 59.162614 
L 354.615037 54.144 
L 345.84059 56.653307 
L 337.066143 59.162614 
L 328.291695 59.162614 
L 319.517248 56.653307 
L 310.742801 56.653307 
L 301.968354 56.653307 
L 293.193907 56.653307 
L 284.419459 56.653307 
L 275.645012 59.162614 
L 266.870565 56.653307 
L 258.096118 56.653307 
L 249.321671 56.653307 
L 240.547224 56.653307 
L 231.772776 56.653307 
L 222.998329 56.653307 
L 214.223882 56.653307 
L 205.449435 56.653307 
L 196.674988 54.144 
L 187.900541 56.653307 
L 179.126093 56.653307 
L 170.351646 56.653307 
L 161.577199 56.653307 
L 152.802752 56.653307 
L 144.028305 56.653307 
L 135.253857 56.653307 
L 126.47941 59.162614 
L 117.704963 56.653307 
L 108.930516 56.653307 
L 100.156069 56.653307 
L 91.381622 54.144 
L 82.607174 56.653307 
L 73.832727 56.653307 
z
" clip-path="url(#pfe41b39ca3)" style="fill: #9467bd"/>
   </g>
   <g id="PolyCollection_26">
    <path d="M 73.832727 56.653307 
L 73.832727 56.653307 
L 82.607174 56.653307 
L 91.381622 54.144 
L 100.156069 56.653307 
L 108.930516 56.653307 
L 117.704963 56.653307 
L 126.47941 59.162614 
L 135.253857 56.653307 
L 144.028305 56.653307 
L 152.802752 56.653307 
L 161.577199 56.653307 
L 170.351646 56.653307 
L 179.126093 56.653307 
L 187.900541 56.653307 
L 196.674988 54.144 
L 205.449435 56.653307 
L 214.223882 56.653307 
L 222.998329 56.653307 
L 231.772776 56.653307 
L 240.547224 56.653307 
L 249.321671 56.653307 
L 258.096118 56.653307 
L 266.870565 56.653307 
L 275.645012 59.162614 
L 284.419459 56.653307 
L 293.193907 56.653307 
L 301.968354 56.653307 
L 310.742801 56.653307 
L 319.517248 56.653307 
L 328.291695 59.162614 
L 337.066143 59.162614 
L 345.84059 56.653307 
L 354.615037 54.144 
L 363.389484 59.162614 
L 372.163931 56.653307 
L 380.938378 56.653307 
L 389.712826 64.181228 
L 398.487273 99.311525 
L 398.487273 76.727762 
L 398.487273 76.727762 
L 389.712826 56.653307 
L 380.938378 56.653307 
L 372.163931 56.653307 
L 363.389484 59.162614 
L 354.615037 54.144 
L 345.84059 56.653307 
L 337.066143 59.162614 
L 328.291695 59.162614 
L 319.517248 56.653307 
L 310.742801 56.653307 
L 301.968354 56.653307 
L 293.193907 56.653307 
L 284.419459 56.653307 
L 275.645012 59.162614 
L 266.870565 56.653307 
L 258.096118 56.653307 
L 249.321671 56.653307 
L 240.547224 56.653307 
L 231.772776 56.653307 
L 222.998329 56.653307 
L 214.223882 56.653307 
L 205.449435 56.653307 
L 196.674988 54.144 
L 187.900541 56.653307 
L 179.126093 56.653307 
L 170.351646 56.653307 
L 161.577199 56.653307 
L 152.802752 56.653307 
L 144.028305 56.653307 
L 135.253857 56.653307 
L 126.47941 59.162614 
L 117.704963 56.653307 
L 108.930516 56.653307 
L 100.156069 56.653307 
L 91.381622 54.144 
L 82.607174 56.653307 
L 73.832727 56.653307 
z
" clip-path="url(#pfe41b39ca3)" style="fill: #8c564b"/>
   </g>
   <g id="PolyCollection_27">
    <path d="M 73.832727 56.653307 
L 73.832727 56.653307 
L 82.607174 56.653307 
L 91.381622 54.144 
L 100.156069 56.653307 
L 108.930516 56.653307 
L 117.704963 56.653307 
L 126.47941 59.162614 
L 135.253857 56.653307 
L 144.028305 56.653307 
L 152.802752 56.653307 
L 161.577199 56.653307 
L 170.351646 56.653307 
L 179.126093 56.653307 
L 187.900541 56.653307 
L 196.674988 54.144 
L 205.449435 56.653307 
L 214.223882 56.653307 
L 222.998329 56.653307 
L 231.772776 56.653307 
L 240.547224 56.653307 
L 249.321671 56.653307 
L 258.096118 56.653307 
L 266.870565 56.653307 
L 275.645012 59.162614 
L 284.419459 56.653307 
L 293.193907 56.653307 
L 301.968354 56.653307 
L 310.742801 56.653307 
L 319.517248 56.653307 
L 328.291695 59.162614 
L 337.066143 59.162614 
L 345.84059 56.653307 
L 354.615037 54.144 
L 363.389484 59.162614 
L 372.163931 56.653307 
L 380.938378 56.653307 
L 389.712826 56.653307 
L 398.487273 76.727762 
L 398.487273 56.653307 
L 398.487273 56.653307 
L 389.712826 56.653307 
L 380.938378 56.653307 
L 372.163931 56.653307 
L 363.389484 59.162614 
L 354.615037 54.144 
L 345.84059 56.653307 
L 337.066143 59.162614 
L 328.291695 59.162614 
L 319.517248 56.653307 
L 310.742801 56.653307 
L 301.968354 56.653307 
L 293.193907 56.653307 
L 284.419459 56.653307 
L 275.645012 59.162614 
L 266.870565 56.653307 
L 258.096118 56.653307 
L 249.321671 56.653307 
L 240.547224 56.653307 
L 231.772776 56.653307 
L 222.998329 56.653307 
L 214.223882 56.653307 
L 205.449435 56.653307 
L 196.674988 54.144 
L 187.900541 56.653307 
L 179.126093 56.653307 
L 170.351646 56.653307 
L 161.577199 56.653307 
L 152.802752 56.653307 
L 144.028305 56.653307 
L 135.253857 56.653307 
L 126.47941 59.162614 
L 117.704963 56.653307 
L 108.930516 56.653307 
L 100.156069 56.653307 
L 91.381622 54.144 
L 82.607174 56.653307 
L 73.832727 56.653307 
z
" clip-path="url(#pfe41b39ca3)" style="fill: #e377c2"/>
   </g>
   <g id="matplotlib.axis_1">
    <g id="xtick_1">
     <g id="line2d_1">
      <defs>
       <path id="m06d02e7585" d="M 0 0 
L 0 3.5 
" style="stroke: #000000; stroke-width: 0.8"/>
      </defs>
      <g>
       <use xlink:href="#m06d02e7585" x="73.832727" y="307.584" style="stroke: #000000; stroke-width: 0.8"/>
      </g>
     </g>
     <g id="text_1">
      <!-- 0 -->
      <g transform="translate(70.651477 322.182437) scale(0.1 -0.1)">
       <defs>
        <path id="DejaVuSans-30" d="M 2034 4250 
Q 1547 4250 1301 3770 
Q 1056 3291 1056 2328 
Q 1056 1369 1301 889 
Q 1547 409 2034 409 
Q 2525 409 2770 889 
Q 3016 1369 3016 2328 
Q 3016 3291 2770 3770 
Q 2525 4250 2034 4250 
z
M 2034 4750 
Q 2819 4750 3233 4129 
Q 3647 3509 3647 2328 
Q 3647 1150 3233 529 
Q 2819 -91 2034 -91 
Q 1250 -91 836 529 
Q 422 1150 422 2328 
Q 422 3509 836 4129 
Q 1250 4750 2034 4750 
z
" transform="scale(0.015625)"/>
       </defs>
       <use xlink:href="#DejaVuSans-30"/>
      </g>
     </g>
    </g>
    <g id="xtick_2">
     <g id="line2d_2">
      <g>
       <use xlink:href="#m06d02e7585" x="117.704963" y="307.584" style="stroke: #000000; stroke-width: 0.8"/>
      </g>
     </g>
     <g id="text_2">
      <!-- 5 -->
      <g transform="translate(114.523713 322.182437) scale(0.1 -0.1)">
       <defs>
        <path id="DejaVuSans-35" d="M 691 4666 
L 3169 4666 
L 3169 4134 
L 1269 4134 
L 1269 2991 
Q 1406 3038 1543 3061 
Q 1681 3084 1819 3084 
Q 2600 3084 3056 2656 
Q 3513 2228 3513 1497 
Q 3513 744 3044 326 
Q 2575 -91 1722 -91 
Q 1428 -91 1123 -41 
Q 819 9 494 109 
L 494 744 
Q 775 591 1075 516 
Q 1375 441 1709 441 
Q 2250 441 2565 725 
Q 2881 1009 2881 1497 
Q 2881 1984 2565 2268 
Q 2250 2553 1709 2553 
Q 1456 2553 1204 2497 
Q 953 2441 691 2322 
L 691 4666 
z
" transform="scale(0.015625)"/>
       </defs>
       <use xlink:href="#DejaVuSans-35"/>
      </g>
     </g>
    </g>
    <g id="xtick_3">
     <g id="line2d_3">
      <g>
       <use xlink:href="#m06d02e7585" x="161.577199" y="307.584" style="stroke: #000000; stroke-width: 0.8"/>
      </g>
     </g>
     <g id="text_3">
      <!-- 10 -->
      <g transform="translate(155.214699 322.182437) scale(0.1 -0.1)">
       <defs>
        <path id="DejaVuSans-31" d="M 794 531 
L 1825 531 
L 1825 4091 
L 703 3866 
L 703 4441 
L 1819 4666 
L 2450 4666 
L 2450 531 
L 3481 531 
L 3481 0 
L 794 0 
L 794 531 
z
" transform="scale(0.015625)"/>
       </defs>
       <use xlink:href="#DejaVuSans-31"/>
       <use xlink:href="#DejaVuSans-30" x="63.623047"/>
      </g>
     </g>
    </g>
    <g id="xtick_4">
     <g id="line2d_4">
      <g>
       <use xlink:href="#m06d02e7585" x="205.449435" y="307.584" style="stroke: #000000; stroke-width: 0.8"/>
      </g>
     </g>
     <g id="text_4">
      <!-- 15 -->
      <g transform="translate(199.086935 322.182437) scale(0.1 -0.1)">
       <use xlink:href="#DejaVuSans-31"/>
       <use xlink:href="#DejaVuSans-35" x="63.623047"/>
      </g>
     </g>
    </g>
    <g id="xtick_5">
     <g id="line2d_5">
      <g>
       <use xlink:href="#m06d02e7585" x="249.321671" y="307.584" style="stroke: #000000; stroke-width: 0.8"/>
      </g>
     </g>
     <g id="text_5">
      <!-- 20 -->
      <g transform="translate(242.959171 322.182437) scale(0.1 -0.1)">
       <defs>
        <path id="DejaVuSans-32" d="M 1228 531 
L 3431 531 
L 3431 0 
L 469 0 
L 469 531 
Q 828 903 1448 1529 
Q 2069 2156 2228 2338 
Q 2531 2678 2651 2914 
Q 2772 3150 2772 3378 
Q 2772 3750 2511 3984 
Q 2250 4219 1831 4219 
Q 1534 4219 1204 4116 
Q 875 4013 500 3803 
L 500 4441 
Q 881 4594 1212 4672 
Q 1544 4750 1819 4750 
Q 2544 4750 2975 4387 
Q 3406 4025 3406 3419 
Q 3406 3131 3298 2873 
Q 3191 2616 2906 2266 
Q 2828 2175 2409 1742 
Q 1991 1309 1228 531 
z
" transform="scale(0.015625)"/>
       </defs>
       <use xlink:href="#DejaVuSans-32"/>
       <use xlink:href="#DejaVuSans-30" x="63.623047"/>
      </g>
     </g>
    </g>
    <g id="xtick_6">
     <g id="line2d_6">
      <g>
       <use xlink:href="#m06d02e7585" x="293.193907" y="307.584" style="stroke: #000000; stroke-width: 0.8"/>
      </g>
     </g>
     <g id="text_6">
      <!-- 25 -->
      <g transform="translate(286.831407 322.182437) scale(0.1 -0.1)">
       <use xlink:href="#DejaVuSans-32"/>
       <use xlink:href="#DejaVuSans-35" x="63.623047"/>
      </g>
     </g>
    </g>
    <g id="xtick_7">
     <g id="line2d_7">
      <g>
       <use xlink:href="#m06d02e7585" x="337.066143" y="307.584" style="stroke: #000000; stroke-width: 0.8"/>
      </g>
     </g>
     <g id="text_7">
      <!-- 30 -->
      <g transform="translate(330.703643 322.182437) scale(0.1 -0.1)">
       <defs>
        <path id="DejaVuSans-33" d="M 2597 2516 
Q 3050 2419 3304 2112 
Q 3559 1806 3559 1356 
Q 3559 666 3084 287 
Q 2609 -91 1734 -91 
Q 1441 -91 1130 -33 
Q 819 25 488 141 
L 488 750 
Q 750 597 1062 519 
Q 1375 441 1716 441 
Q 2309 441 2620 675 
Q 2931 909 2931 1356 
Q 2931 1769 2642 2001 
Q 2353 2234 1838 2234 
L 1294 2234 
L 1294 2753 
L 1863 2753 
Q 2328 2753 2575 2939 
Q 2822 3125 2822 3475 
Q 2822 3834 2567 4026 
Q 2313 4219 1838 4219 
Q 1578 4219 1281 4162 
Q 984 4106 628 3988 
L 628 4550 
Q 988 4650 1302 4700 
Q 1616 4750 1894 4750 
Q 2613 4750 3031 4423 
Q 3450 4097 3450 3541 
Q 3450 3153 3228 2886 
Q 3006 2619 2597 2516 
z
" transform="scale(0.015625)"/>
       </defs>
       <use xlink:href="#DejaVuSans-33"/>
       <use xlink:href="#DejaVuSans-30" x="63.623047"/>
      </g>
     </g>
    </g>
    <g id="xtick_8">
     <g id="line2d_8">
      <g>
       <use xlink:href="#m06d02e7585" x="380.938378" y="307.584" style="stroke: #000000; stroke-width: 0.8"/>
      </g>
     </g>
     <g id="text_8">
      <!-- 35 -->
      <g transform="translate(374.575878 322.182437) scale(0.1 -0.1)">
       <use xlink:href="#DejaVuSans-33"/>
       <use xlink:href="#DejaVuSans-35" x="63.623047"/>
      </g>
     </g>
    </g>
    <g id="text_9">
     <!-- Generations -->
     <g transform="translate(205.662344 335.860562) scale(0.1 -0.1)">
      <defs>
       <path id="DejaVuSans-47" d="M 3809 666 
L 3809 1919 
L 2778 1919 
L 2778 2438 
L 4434 2438 
L 4434 434 
Q 4069 175 3628 42 
Q 3188 -91 2688 -91 
Q 1594 -91 976 548 
Q 359 1188 359 2328 
Q 359 3472 976 4111 
Q 1594 4750 2688 4750 
Q 3144 4750 3555 4637 
Q 3966 4525 4313 4306 
L 4313 3634 
Q 3963 3931 3569 4081 
Q 3175 4231 2741 4231 
Q 1884 4231 1454 3753 
Q 1025 3275 1025 2328 
Q 1025 1384 1454 906 
Q 1884 428 2741 428 
Q 3075 428 3337 486 
Q 3600 544 3809 666 
z
" transform="scale(0.015625)"/>
       <path id="DejaVuSans-65" d="M 3597 1894 
L 3597 1613 
L 953 1613 
Q 991 1019 1311 708 
Q 1631 397 2203 397 
Q 2534 397 2845 478 
Q 3156 559 3463 722 
L 3463 178 
Q 3153 47 2828 -22 
Q 2503 -91 2169 -91 
Q 1331 -91 842 396 
Q 353 884 353 1716 
Q 353 2575 817 3079 
Q 1281 3584 2069 3584 
Q 2775 3584 3186 3129 
Q 3597 2675 3597 1894 
z
M 3022 2063 
Q 3016 2534 2758 2815 
Q 2500 3097 2075 3097 
Q 1594 3097 1305 2825 
Q 1016 2553 972 2059 
L 3022 2063 
z
" transform="scale(0.015625)"/>
       <path id="DejaVuSans-6e" d="M 3513 2113 
L 3513 0 
L 2938 0 
L 2938 2094 
Q 2938 2591 2744 2837 
Q 2550 3084 2163 3084 
Q 1697 3084 1428 2787 
Q 1159 2491 1159 1978 
L 1159 0 
L 581 0 
L 581 3500 
L 1159 3500 
L 1159 2956 
Q 1366 3272 1645 3428 
Q 1925 3584 2291 3584 
Q 2894 3584 3203 3211 
Q 3513 2838 3513 2113 
z
" transform="scale(0.015625)"/>
       <path id="DejaVuSans-72" d="M 2631 2963 
Q 2534 3019 2420 3045 
Q 2306 3072 2169 3072 
Q 1681 3072 1420 2755 
Q 1159 2438 1159 1844 
L 1159 0 
L 581 0 
L 581 3500 
L 1159 3500 
L 1159 2956 
Q 1341 3275 1631 3429 
Q 1922 3584 2338 3584 
Q 2397 3584 2469 3576 
Q 2541 3569 2628 3553 
L 2631 2963 
z
" transform="scale(0.015625)"/>
       <path id="DejaVuSans-61" d="M 2194 1759 
Q 1497 1759 1228 1600 
Q 959 1441 959 1056 
Q 959 750 1161 570 
Q 1363 391 1709 391 
Q 2188 391 2477 730 
Q 2766 1069 2766 1631 
L 2766 1759 
L 2194 1759 
z
M 3341 1997 
L 3341 0 
L 2766 0 
L 2766 531 
Q 2569 213 2275 61 
Q 1981 -91 1556 -91 
Q 1019 -91 701 211 
Q 384 513 384 1019 
Q 384 1609 779 1909 
Q 1175 2209 1959 2209 
L 2766 2209 
L 2766 2266 
Q 2766 2663 2505 2880 
Q 2244 3097 1772 3097 
Q 1472 3097 1187 3025 
Q 903 2953 641 2809 
L 641 3341 
Q 956 3463 1253 3523 
Q 1550 3584 1831 3584 
Q 2591 3584 2966 3190 
Q 3341 2797 3341 1997 
z
" transform="scale(0.015625)"/>
       <path id="DejaVuSans-74" d="M 1172 4494 
L 1172 3500 
L 2356 3500 
L 2356 3053 
L 1172 3053 
L 1172 1153 
Q 1172 725 1289 603 
Q 1406 481 1766 481 
L 2356 481 
L 2356 0 
L 1766 0 
Q 1100 0 847 248 
Q 594 497 594 1153 
L 594 3053 
L 172 3053 
L 172 3500 
L 594 3500 
L 594 4494 
L 1172 4494 
z
" transform="scale(0.015625)"/>
       <path id="DejaVuSans-69" d="M 603 3500 
L 1178 3500 
L 1178 0 
L 603 0 
L 603 3500 
z
M 603 4863 
L 1178 4863 
L 1178 4134 
L 603 4134 
L 603 4863 
z
" transform="scale(0.015625)"/>
       <path id="DejaVuSans-6f" d="M 1959 3097 
Q 1497 3097 1228 2736 
Q 959 2375 959 1747 
Q 959 1119 1226 758 
Q 1494 397 1959 397 
Q 2419 397 2687 759 
Q 2956 1122 2956 1747 
Q 2956 2369 2687 2733 
Q 2419 3097 1959 3097 
z
M 1959 3584 
Q 2709 3584 3137 3096 
Q 3566 2609 3566 1747 
Q 3566 888 3137 398 
Q 2709 -91 1959 -91 
Q 1206 -91 779 398 
Q 353 888 353 1747 
Q 353 2609 779 3096 
Q 1206 3584 1959 3584 
z
" transform="scale(0.015625)"/>
       <path id="DejaVuSans-73" d="M 2834 3397 
L 2834 2853 
Q 2591 2978 2328 3040 
Q 2066 3103 1784 3103 
Q 1356 3103 1142 2972 
Q 928 2841 928 2578 
Q 928 2378 1081 2264 
Q 1234 2150 1697 2047 
L 1894 2003 
Q 2506 1872 2764 1633 
Q 3022 1394 3022 966 
Q 3022 478 2636 193 
Q 2250 -91 1575 -91 
Q 1294 -91 989 -36 
Q 684 19 347 128 
L 347 722 
Q 666 556 975 473 
Q 1284 391 1588 391 
Q 1994 391 2212 530 
Q 2431 669 2431 922 
Q 2431 1156 2273 1281 
Q 2116 1406 1581 1522 
L 1381 1569 
Q 847 1681 609 1914 
Q 372 2147 372 2553 
Q 372 3047 722 3315 
Q 1072 3584 1716 3584 
Q 2034 3584 2315 3537 
Q 2597 3491 2834 3397 
z
" transform="scale(0.015625)"/>
      </defs>
      <use xlink:href="#DejaVuSans-47"/>
      <use xlink:href="#DejaVuSans-65" x="77.490234"/>
      <use xlink:href="#DejaVuSans-6e" x="139.013672"/>
      <use xlink:href="#DejaVuSans-65" x="202.392578"/>
      <use xlink:href="#DejaVuSans-72" x="263.916016"/>
      <use xlink:href="#DejaVuSans-61" x="305.029297"/>
      <use xlink:href="#DejaVuSans-74" x="366.308594"/>
      <use xlink:href="#DejaVuSans-69" x="405.517578"/>
      <use xlink:href="#DejaVuSans-6f" x="433.300781"/>
      <use xlink:href="#DejaVuSans-6e" x="494.482422"/>
      <use xlink:href="#DejaVuSans-73" x="557.861328"/>
     </g>
    </g>
   </g>
   <g id="matplotlib.axis_2">
    <g id="ytick_1">
     <g id="line2d_9">
      <defs>
       <path id="mb087b499a7" d="M 0 0 
L -3.5 0 
" style="stroke: #000000; stroke-width: 0.8"/>
      </defs>
      <g>
       <use xlink:href="#mb087b499a7" x="57.6" y="307.584" style="stroke: #000000; stroke-width: 0.8"/>
      </g>
     </g>
     <g id="text_10">
      <!-- 0 -->
      <g transform="translate(44.2375 311.383219) scale(0.1 -0.1)">
       <use xlink:href="#DejaVuSans-30"/>
      </g>
     </g>
    </g>
    <g id="ytick_2">
     <g id="line2d_10">
      <g>
       <use xlink:href="#mb087b499a7" x="57.6" y="257.397861" style="stroke: #000000; stroke-width: 0.8"/>
      </g>
     </g>
     <g id="text_11">
      <!-- 20 -->
      <g transform="translate(37.875 261.19708) scale(0.1 -0.1)">
       <use xlink:href="#DejaVuSans-32"/>
       <use xlink:href="#DejaVuSans-30" x="63.623047"/>
      </g>
     </g>
    </g>
    <g id="ytick_3">
     <g id="line2d_11">
      <g>
       <use xlink:href="#mb087b499a7" x="57.6" y="207.211723" style="stroke: #000000; stroke-width: 0.8"/>
      </g>
     </g>
     <g id="text_12">
      <!-- 40 -->
      <g transform="translate(37.875 211.010942) scale(0.1 -0.1)">
       <defs>
        <path id="DejaVuSans-34" d="M 2419 4116 
L 825 1625 
L 2419 1625 
L 2419 4116 
z
M 2253 4666 
L 3047 4666 
L 3047 1625 
L 3713 1625 
L 3713 1100 
L 3047 1100 
L 3047 0 
L 2419 0 
L 2419 1100 
L 313 1100 
L 313 1709 
L 2253 4666 
z
" transform="scale(0.015625)"/>
       </defs>
       <use xlink:href="#DejaVuSans-34"/>
       <use xlink:href="#DejaVuSans-30" x="63.623047"/>
      </g>
     </g>
    </g>
    <g id="ytick_4">
     <g id="line2d_12">
      <g>
       <use xlink:href="#mb087b499a7" x="57.6" y="157.025584" style="stroke: #000000; stroke-width: 0.8"/>
      </g>
     </g>
     <g id="text_13">
      <!-- 60 -->
      <g transform="translate(37.875 160.824803) scale(0.1 -0.1)">
       <defs>
        <path id="DejaVuSans-36" d="M 2113 2584 
Q 1688 2584 1439 2293 
Q 1191 2003 1191 1497 
Q 1191 994 1439 701 
Q 1688 409 2113 409 
Q 2538 409 2786 701 
Q 3034 994 3034 1497 
Q 3034 2003 2786 2293 
Q 2538 2584 2113 2584 
z
M 3366 4563 
L 3366 3988 
Q 3128 4100 2886 4159 
Q 2644 4219 2406 4219 
Q 1781 4219 1451 3797 
Q 1122 3375 1075 2522 
Q 1259 2794 1537 2939 
Q 1816 3084 2150 3084 
Q 2853 3084 3261 2657 
Q 3669 2231 3669 1497 
Q 3669 778 3244 343 
Q 2819 -91 2113 -91 
Q 1303 -91 875 529 
Q 447 1150 447 2328 
Q 447 3434 972 4092 
Q 1497 4750 2381 4750 
Q 2619 4750 2861 4703 
Q 3103 4656 3366 4563 
z
" transform="scale(0.015625)"/>
       </defs>
       <use xlink:href="#DejaVuSans-36"/>
       <use xlink:href="#DejaVuSans-30" x="63.623047"/>
      </g>
     </g>
    </g>
    <g id="ytick_5">
     <g id="line2d_13">
      <g>
       <use xlink:href="#mb087b499a7" x="57.6" y="106.839446" style="stroke: #000000; stroke-width: 0.8"/>
      </g>
     </g>
     <g id="text_14">
      <!-- 80 -->
      <g transform="translate(37.875 110.638664) scale(0.1 -0.1)">
       <defs>
        <path id="DejaVuSans-38" d="M 2034 2216 
Q 1584 2216 1326 1975 
Q 1069 1734 1069 1313 
Q 1069 891 1326 650 
Q 1584 409 2034 409 
Q 2484 409 2743 651 
Q 3003 894 3003 1313 
Q 3003 1734 2745 1975 
Q 2488 2216 2034 2216 
z
M 1403 2484 
Q 997 2584 770 2862 
Q 544 3141 544 3541 
Q 544 4100 942 4425 
Q 1341 4750 2034 4750 
Q 2731 4750 3128 4425 
Q 3525 4100 3525 3541 
Q 3525 3141 3298 2862 
Q 3072 2584 2669 2484 
Q 3125 2378 3379 2068 
Q 3634 1759 3634 1313 
Q 3634 634 3220 271 
Q 2806 -91 2034 -91 
Q 1263 -91 848 271 
Q 434 634 434 1313 
Q 434 1759 690 2068 
Q 947 2378 1403 2484 
z
M 1172 3481 
Q 1172 3119 1398 2916 
Q 1625 2713 2034 2713 
Q 2441 2713 2670 2916 
Q 2900 3119 2900 3481 
Q 2900 3844 2670 4047 
Q 2441 4250 2034 4250 
Q 1625 4250 1398 4047 
Q 1172 3844 1172 3481 
z
" transform="scale(0.015625)"/>
       </defs>
       <use xlink:href="#DejaVuSans-38"/>
       <use xlink:href="#DejaVuSans-30" x="63.623047"/>
      </g>
     </g>
    </g>
    <g id="ytick_6">
     <g id="line2d_14">
      <g>
       <use xlink:href="#mb087b499a7" x="57.6" y="56.653307" style="stroke: #000000; stroke-width: 0.8"/>
      </g>
     </g>
     <g id="text_15">
      <!-- 100 -->
      <g transform="translate(31.5125 60.452526) scale(0.1 -0.1)">
       <use xlink:href="#DejaVuSans-31"/>
       <use xlink:href="#DejaVuSans-30" x="63.623047"/>
       <use xlink:href="#DejaVuSans-30" x="127.246094"/>
      </g>
     </g>
    </g>
    <g id="text_16">
     <!-- Size per Species -->
     <g transform="translate(25.432812 215.520969) rotate(-90) scale(0.1 -0.1)">
      <defs>
       <path id="DejaVuSans-53" d="M 3425 4513 
L 3425 3897 
Q 3066 4069 2747 4153 
Q 2428 4238 2131 4238 
Q 1616 4238 1336 4038 
Q 1056 3838 1056 3469 
Q 1056 3159 1242 3001 
Q 1428 2844 1947 2747 
L 2328 2669 
Q 3034 2534 3370 2195 
Q 3706 1856 3706 1288 
Q 3706 609 3251 259 
Q 2797 -91 1919 -91 
Q 1588 -91 1214 -16 
Q 841 59 441 206 
L 441 856 
Q 825 641 1194 531 
Q 1563 422 1919 422 
Q 2459 422 2753 634 
Q 3047 847 3047 1241 
Q 3047 1584 2836 1778 
Q 2625 1972 2144 2069 
L 1759 2144 
Q 1053 2284 737 2584 
Q 422 2884 422 3419 
Q 422 4038 858 4394 
Q 1294 4750 2059 4750 
Q 2388 4750 2728 4690 
Q 3069 4631 3425 4513 
z
" transform="scale(0.015625)"/>
       <path id="DejaVuSans-7a" d="M 353 3500 
L 3084 3500 
L 3084 2975 
L 922 459 
L 3084 459 
L 3084 0 
L 275 0 
L 275 525 
L 2438 3041 
L 353 3041 
L 353 3500 
z
" transform="scale(0.015625)"/>
       <path id="DejaVuSans-20" transform="scale(0.015625)"/>
       <path id="DejaVuSans-70" d="M 1159 525 
L 1159 -1331 
L 581 -1331 
L 581 3500 
L 1159 3500 
L 1159 2969 
Q 1341 3281 1617 3432 
Q 1894 3584 2278 3584 
Q 2916 3584 3314 3078 
Q 3713 2572 3713 1747 
Q 3713 922 3314 415 
Q 2916 -91 2278 -91 
Q 1894 -91 1617 61 
Q 1341 213 1159 525 
z
M 3116 1747 
Q 3116 2381 2855 2742 
Q 2594 3103 2138 3103 
Q 1681 3103 1420 2742 
Q 1159 2381 1159 1747 
Q 1159 1113 1420 752 
Q 1681 391 2138 391 
Q 2594 391 2855 752 
Q 3116 1113 3116 1747 
z
" transform="scale(0.015625)"/>
       <path id="DejaVuSans-63" d="M 3122 3366 
L 3122 2828 
Q 2878 2963 2633 3030 
Q 2388 3097 2138 3097 
Q 1578 3097 1268 2742 
Q 959 2388 959 1747 
Q 959 1106 1268 751 
Q 1578 397 2138 397 
Q 2388 397 2633 464 
Q 2878 531 3122 666 
L 3122 134 
Q 2881 22 2623 -34 
Q 2366 -91 2075 -91 
Q 1284 -91 818 406 
Q 353 903 353 1747 
Q 353 2603 823 3093 
Q 1294 3584 2113 3584 
Q 2378 3584 2631 3529 
Q 2884 3475 3122 3366 
z
" transform="scale(0.015625)"/>
      </defs>
      <use xlink:href="#DejaVuSans-53"/>
      <use xlink:href="#DejaVuSans-69" x="63.476562"/>
      <use xlink:href="#DejaVuSans-7a" x="91.259766"/>
      <use xlink:href="#DejaVuSans-65" x="143.75"/>
      <use xlink:href="#DejaVuSans-20" x="205.273438"/>
      <use xlink:href="#DejaVuSans-70" x="237.060547"/>
      <use xlink:href="#DejaVuSans-65" x="300.537109"/>
      <use xlink:href="#DejaVuSans-72" x="362.060547"/>
      <use xlink:href="#DejaVuSans-20" x="403.173828"/>
      <use xlink:href="#DejaVuSans-53" x="434.960938"/>
      <use xlink:href="#DejaVuSans-70" x="498.4375"/>
      <use xlink:href="#DejaVuSans-65" x="561.914062"/>
      <use xlink:href="#DejaVuSans-63" x="623.4375"/>
      <use xlink:href="#DejaVuSans-69" x="678.417969"/>
      <use xlink:href="#DejaVuSans-65" x="706.201172"/>
      <use xlink:href="#DejaVuSans-73" x="767.724609"/>
     </g>
    </g>
   </g>
   <g id="patch_3">
    <path d="M 57.6 307.584 
L 57.6 41.472 
" style="fill: none; stroke: #000000; stroke-width: 0.8; stroke-linejoin: miter; stroke-linecap: square"/>
   </g>
   <g id="patch_4">
    <path d="M 414.72 307.584 
L 414.72 41.472 
" style="fill: none; stroke: #000000; stroke-width: 0.8; stroke-linejoin: miter; stroke-linecap: square"/>
   </g>
   <g id="patch_5">
    <path d="M 57.6 307.584 
L 414.72 307.584 
" style="fill: none; stroke: #000000; stroke-width: 0.8; stroke-linejoin: miter; stroke-linecap: square"/>
   </g>
   <g id="patch_6">
    <path d="M 57.6 41.472 
L 414.72 41.472 
" style="fill: none; stroke: #000000; stroke-width: 0.8; stroke-linejoin: miter; stroke-linecap: square"/>
   </g>
   <g id="text_17">
    <!-- Speciation -->
    <g transform="translate(204.714375 35.472) scale(0.12 -0.12)">
     <use xlink:href="#DejaVuSans-53"/>
     <use xlink:href="#DejaVuSans-70" x="63.476562"/>
     <use xlink:href="#DejaVuSans-65" x="126.953125"/>
     <use xlink:href="#DejaVuSans-63" x="188.476562"/>
     <use xlink:href="#DejaVuSans-69" x="243.457031"/>
     <use xlink:href="#DejaVuSans-61" x="271.240234"/>
     <use xlink:href="#DejaVuSans-74" x="332.519531"/>
     <use xlink:href="#DejaVuSans-69" x="371.728516"/>
     <use xlink:href="#DejaVuSans-6f" x="399.511719"/>
     <use xlink:href="#DejaVuSans-6e" x="460.693359"/>
    </g>
   </g>
  </g>
 </g>
 <defs>
  <clipPath id="pfe41b39ca3">
   <rect x="57.6" y="41.472" width="357.12" height="266.112"/>
  </clipPath>
 </defs>
</svg>
